<?xml version="1.0" encoding="UTF-8" standalone="no"?>
<svg
   xmlns:dc="http://purl.org/dc/elements/1.1/"
   xmlns:cc="http://creativecommons.org/ns#"
   xmlns:rdf="http://www.w3.org/1999/02/22-rdf-syntax-ns#"
   xmlns:svg="http://www.w3.org/2000/svg"
   xmlns="http://www.w3.org/2000/svg"
   xmlns:sodipodi="http://sodipodi.sourceforge.net/DTD/sodipodi-0.dtd"
   xmlns:inkscape="http://www.inkscape.org/namespaces/inkscape"
   inkscape:version="1.0 (4035a4fb49, 2020-05-01)"
   sodipodi:docname="clinical_notes_FILL0_wght400_GRAD0_opsz48.svg"
   id="svg4"
   version="1.1"
   width="48"
   viewBox="0 96 960 960"
   height="48">
  <metadata
     id="metadata10">
    <rdf:RDF>
      <cc:Work
         rdf:about="">
        <dc:format>image/svg+xml</dc:format>
        <dc:type
           rdf:resource="http://purl.org/dc/dcmitype/StillImage" />
      </cc:Work>
    </rdf:RDF>
  </metadata>
  <defs
     id="defs8" />
  <sodipodi:namedview
     inkscape:current-layer="svg4"
     inkscape:window-maximized="0"
     inkscape:window-y="0"
     inkscape:window-x="0"
     inkscape:cy="24"
     inkscape:cx="24"
     inkscape:zoom="17.708333"
     showgrid="false"
     id="namedview6"
     inkscape:window-height="480"
     inkscape:window-width="820"
     inkscape:pageshadow="2"
     inkscape:pageopacity="0"
     guidetolerance="10"
     gridtolerance="10"
     objecttolerance="10"
     borderopacity="1"
     bordercolor="#666666"
     pagecolor="#ffffff" />
  <path
     style="fill:#ffffff"
     id="path2"
     d="M680 726q-50 0-85-35t-35-85q0-50 35-85t85-35q50 0 85 35t35 85q0 50-35 85t-85 35Zm0-60q25.5 0 42.75-17.25T740 606q0-25.5-17.25-42.75T680 546q-25.5 0-42.75 17.25T620 606q0 25.5 17.25 42.75T680 666Zm-240 340V890q0-21 10-39.5t28-29.5q28-17 58-29.5t62-20.5l82 106 82-106q32 8 61.5 20.5T881 821q18 11 28.5 29.5T920 890v116H440Zm60-60h157l-82-106q-20 8-39 17.5T500 878v68Zm203 0h157v-68q-17-11-35.5-20.5T786 840l-83 106Zm-46 0Zm46 0Zm-523-10q-24.75 0-42.375-17.625T120 876V276q0-24.75 17.625-42.375T180 216h600q24.75 0 42.375 17.625T840 276v247q-11-20-26-37t-34-30V276H180v600h200v60H180Zm100-500h341q14-5 28.84-7.5Q664.681 426 680 426v-50H280v60Zm0 170h220q0-15 2.5-30.5T510 546H280v60Zm0 170h158q17-13 36-21.5t39-16.5v-22H280v60ZM180 876V276v180-30 450Zm500-270Z" />
</svg>
