<?xml version="1.0" encoding="UTF-8" standalone="no"?>
<svg
   xmlns:dc="http://purl.org/dc/elements/1.1/"
   xmlns:cc="http://creativecommons.org/ns#"
   xmlns:rdf="http://www.w3.org/1999/02/22-rdf-syntax-ns#"
   xmlns:svg="http://www.w3.org/2000/svg"
   xmlns="http://www.w3.org/2000/svg"
   xmlns:sodipodi="http://sodipodi.sourceforge.net/DTD/sodipodi-0.dtd"
   xmlns:inkscape="http://www.inkscape.org/namespaces/inkscape"
   inkscape:version="1.0 (4035a4fb49, 2020-05-01)"
   sodipodi:docname="conditions_FILL1_wght400_GRAD0_opsz48.svg"
   id="svg4"
   version="1.1"
   width="48"
   viewBox="0 96 960 960"
   height="48">
  <metadata
     id="metadata10">
    <rdf:RDF>
      <cc:Work
         rdf:about="">
        <dc:format>image/svg+xml</dc:format>
        <dc:type
           rdf:resource="http://purl.org/dc/dcmitype/StillImage" />
      </cc:Work>
    </rdf:RDF>
  </metadata>
  <defs
     id="defs8" />
  <sodipodi:namedview
     inkscape:current-layer="svg4"
     inkscape:window-maximized="0"
     inkscape:window-y="0"
     inkscape:window-x="0"
     inkscape:cy="24"
     inkscape:cx="24"
     inkscape:zoom="17.708333"
     showgrid="false"
     id="namedview6"
     inkscape:window-height="480"
     inkscape:window-width="705"
     inkscape:pageshadow="2"
     inkscape:pageopacity="0"
     guidetolerance="10"
     gridtolerance="10"
     objecttolerance="10"
     borderopacity="1"
     bordercolor="#666666"
     pagecolor="#ffffff" />
  <path
     style="fill:#ffffff"
     id="path2"
     d="M400.08 322q-30.08 0-51.58-21.42-21.5-21.421-21.5-51.5 0-30.08 21.42-51.58 21.421-21.5 51.5-21.5 30.08 0 51.58 21.42 21.5 21.421 21.5 51.5 0 30.08-21.42 51.58-21.421 21.5-51.5 21.5Zm259.779 504Q706 826 738 794.141q32-31.859 32-78T738.141 638q-31.859-32-78-32T582 637.859q-32 31.859-32 78T581.859 794q31.859 32 78 32ZM864 962 757 855q-22 15-46.324 23-24.325 8-50.676 8-70.833 0-120.417-49.618Q490 786.765 490 715.882 490 645 539.618 595.5q49.617-49.5 120.5-49.5Q731 546 780.5 595.583 830 645.167 830 716q0 26.351-8 50.676Q814 791 799 813l107 107-42 42Zm-417 14V803q10 25 25 46.5t35 38.5v88h-60Zm-154 0V443q-64.033-4.583-127.017-13.292Q103 421 40 406l15-60q85.268 20 171.044 28.5 85.776 8.5 174.09 8.5 88.314 0 174.09-8.5Q660 366 745 346l15 60q-63 15-125.983 23.708Q571.033 438.417 507 443v101q-35 32-56 76.5T430 716h-77v260h-60Z" />
</svg>
