<?xml version="1.0" encoding="UTF-8" standalone="no"?>
<svg
   xmlns:dc="http://purl.org/dc/elements/1.1/"
   xmlns:cc="http://creativecommons.org/ns#"
   xmlns:rdf="http://www.w3.org/1999/02/22-rdf-syntax-ns#"
   xmlns:svg="http://www.w3.org/2000/svg"
   xmlns="http://www.w3.org/2000/svg"
   xmlns:sodipodi="http://sodipodi.sourceforge.net/DTD/sodipodi-0.dtd"
   xmlns:inkscape="http://www.inkscape.org/namespaces/inkscape"
   inkscape:version="1.0 (4035a4fb49, 2020-05-01)"
   sodipodi:docname="medication_FILL0_wght400_GRAD0_opsz48_w.svg"
   id="svg4"
   version="1.1"
   width="48"
   viewBox="0 -960 960 960"
   height="48">
  <metadata
     id="metadata10">
    <rdf:RDF>
      <cc:Work
         rdf:about="">
        <dc:format>image/svg+xml</dc:format>
        <dc:type
           rdf:resource="http://purl.org/dc/dcmitype/StillImage" />
        <dc:title></dc:title>
      </cc:Work>
    </rdf:RDF>
  </metadata>
  <defs
     id="defs8" />
  <sodipodi:namedview
     inkscape:current-layer="svg4"
     inkscape:window-maximized="0"
     inkscape:window-y="0"
     inkscape:window-x="0"
     inkscape:cy="24"
     inkscape:cx="24"
     inkscape:zoom="17.708333"
     showgrid="false"
     id="namedview6"
     inkscape:window-height="480"
     inkscape:window-width="729"
     inkscape:pageshadow="2"
     inkscape:pageopacity="0"
     guidetolerance="10"
     gridtolerance="10"
     objecttolerance="10"
     borderopacity="1"
     bordercolor="#666666"
     pagecolor="#ffffff" />
  <path
     style="fill:#ffffff;stroke-width:0.999999"
     id="path2"
     d="m 440,-269 h 79 v -111 h 114.00001 v -80 H 519 v -111 h -79 v 111 H 327 v 80 h 113 z m -180,149 q -24.75,0 -42.375,-17.625 Q 200,-155.25 200,-180 v -479 q 0,-24.75 17.625,-42.375 Q 235.25,-719 260,-719 h 440 q 24.74999,0 42.37501,17.625 Q 760,-683.75 760,-659 v 479 q 0,24.75 -17.62499,42.375 Q 724.74999,-120 700,-120 Z m 0,-60 H 700 V -659 H 260 Z m -20,-600 v -60 h 481 v 60 z m 20,121 v 479 z" />
</svg>
