<?xml version="1.0" encoding="UTF-8" standalone="no"?>
<svg
   xmlns:dc="http://purl.org/dc/elements/1.1/"
   xmlns:cc="http://creativecommons.org/ns#"
   xmlns:rdf="http://www.w3.org/1999/02/22-rdf-syntax-ns#"
   xmlns:svg="http://www.w3.org/2000/svg"
   xmlns="http://www.w3.org/2000/svg"
   xmlns:sodipodi="http://sodipodi.sourceforge.net/DTD/sodipodi-0.dtd"
   xmlns:inkscape="http://www.inkscape.org/namespaces/inkscape"
   inkscape:version="1.0 (4035a4fb49, 2020-05-01)"
   sodipodi:docname="medical_information_FILL0_wght400_GRAD0_opsz48_w.svg"
   id="svg4"
   version="1.1"
   width="48"
   viewBox="0 -960 960 960"
   height="48">
  <metadata
     id="metadata10">
    <rdf:RDF>
      <cc:Work
         rdf:about="">
        <dc:format>image/svg+xml</dc:format>
        <dc:type
           rdf:resource="http://purl.org/dc/dcmitype/StillImage" />
        <dc:title></dc:title>
      </cc:Work>
    </rdf:RDF>
  </metadata>
  <defs
     id="defs8" />
  <sodipodi:namedview
     inkscape:current-layer="svg4"
     inkscape:window-maximized="0"
     inkscape:window-y="0"
     inkscape:window-x="0"
     inkscape:cy="24"
     inkscape:cx="24"
     inkscape:zoom="17.708333"
     showgrid="false"
     id="namedview6"
     inkscape:window-height="480"
     inkscape:window-width="786"
     inkscape:pageshadow="2"
     inkscape:pageopacity="0"
     guidetolerance="10"
     gridtolerance="10"
     objecttolerance="10"
     borderopacity="1"
     bordercolor="#666666"
     pagecolor="#ffffff" />
  <path
     style="stroke-width:1;fill:#ffffff"
     id="path2"
     d="m 290,-240 h 60 v -90 h 90 v -60 h -90 v -90 h -60 v 90 h -90 v 60 h 90 z m 230,-150 h 240 v -40 H 520 Z m 0,120 h 160 v -40 H 520 Z M 140,-80 q -24,0 -42,-18 -18,-18 -18,-42 v -480 q 0,-24 18,-42 18,-18 42,-18 h 250 v -140 q 0,-24 18,-42 18,-18 42.411,-18 h 59.178 q 24.411,0 42.411,18 18,18 18,42 v 140 h 250 q 24,0 42,18 18,18 18,42 v 480 q 0,24 -18,42 -18,18 -42,18 z m 0,-60 H 820 V -620 H 570 v 30 q 0,28 -18,44 -18,16 -42.411,16 H 450.411 Q 426,-530 408,-546 q -18,-16 -18,-44 v -30 H 140 Z m 310,-450 h 60 v -230 h -60 z m 30,210 z" />
</svg>
