<?xml version="1.0" encoding="UTF-8" standalone="no"?>
<svg
   xmlns:dc="http://purl.org/dc/elements/1.1/"
   xmlns:cc="http://creativecommons.org/ns#"
   xmlns:rdf="http://www.w3.org/1999/02/22-rdf-syntax-ns#"
   xmlns:svg="http://www.w3.org/2000/svg"
   xmlns="http://www.w3.org/2000/svg"
   xmlns:sodipodi="http://sodipodi.sourceforge.net/DTD/sodipodi-0.dtd"
   xmlns:inkscape="http://www.inkscape.org/namespaces/inkscape"
   inkscape:version="1.0 (4035a4fb49, 2020-05-01)"
   sodipodi:docname="moving_beds_FILL0_wght400_GRAD0_opsz48.svg"
   id="svg4"
   version="1.1"
   width="48"
   viewBox="0 96 960 960"
   height="48">
  <metadata
     id="metadata10">
    <rdf:RDF>
      <cc:Work
         rdf:about="">
        <dc:format>image/svg+xml</dc:format>
        <dc:type
           rdf:resource="http://purl.org/dc/dcmitype/StillImage" />
      </cc:Work>
    </rdf:RDF>
  </metadata>
  <defs
     id="defs8" />
  <sodipodi:namedview
     inkscape:current-layer="svg4"
     inkscape:window-maximized="0"
     inkscape:window-y="0"
     inkscape:window-x="0"
     inkscape:cy="24"
     inkscape:cx="24"
     inkscape:zoom="17.708333"
     showgrid="false"
     id="namedview6"
     inkscape:window-height="836"
     inkscape:window-width="1332"
     inkscape:pageshadow="2"
     inkscape:pageopacity="0"
     guidetolerance="10"
     gridtolerance="10"
     objecttolerance="10"
     borderopacity="1"
     bordercolor="#666666"
     pagecolor="#ffffff" />
  <path
     style="stroke-width:1;fill:#ffffff"
     id="path2"
     d="M 140,976 Q 115.25,976 97.625,958.375 80,940.75 80,916 V 236 Q 80,211.25 97.625,193.625 115.25,176 140,176 h 400 q 24.75001,0 42.37502,17.625 17.62496,17.625 17.62496,42.375 v 680 q 0,24.75 -17.62496,42.375 Q 564.75001,976 540,976 Z m 0,-445 q 20,-17 45.5,-26 25.5,-9 54.5,-9 h 200 q 29,0 54.5,9 25.49998,9 45.5,26 V 236 H 140 Z M 339.911,446 Q 311,446 290.5,425.411 270,404.823 270,375.911 270,347 290.589,326.5 311.177,306 340.089,306 369,306 389.5,326.589 410,347.177 410,376.089 410,405 389.411,425.5 368.823,446 339.911,446 Z m 440.08901,270 -42,-42 67,-68 H 639.99999 v -60 h 165.00002 l -67,-68 42,-42 L 920,576 Z M 140,916 H 540 V 656 Q 540,614 511.00001,585 482,556 440,556 H 240 q -42,0 -71,29 -29,29 -29,71 z m 170,-70 h 60 v -80 h 80 v -60 h -80 v -80 h -60 v 80 h -80 v 60 h 80 z m -170,70 h 400 z" />
</svg>
