<?xml version="1.0" encoding="UTF-8" standalone="no"?>
<svg
   xmlns:dc="http://purl.org/dc/elements/1.1/"
   xmlns:cc="http://creativecommons.org/ns#"
   xmlns:rdf="http://www.w3.org/1999/02/22-rdf-syntax-ns#"
   xmlns:svg="http://www.w3.org/2000/svg"
   xmlns="http://www.w3.org/2000/svg"
   xmlns:sodipodi="http://sodipodi.sourceforge.net/DTD/sodipodi-0.dtd"
   xmlns:inkscape="http://www.inkscape.org/namespaces/inkscape"
   inkscape:version="1.0 (4035a4fb49, 2020-05-01)"
   sodipodi:docname="orthopedics_FILL1_wght400_GRAD0_opsz48.svg"
   id="svg4"
   version="1.1"
   width="48"
   viewBox="0 96 960 960"
   height="48">
  <metadata
     id="metadata10">
    <rdf:RDF>
      <cc:Work
         rdf:about="">
        <dc:format>image/svg+xml</dc:format>
        <dc:type
           rdf:resource="http://purl.org/dc/dcmitype/StillImage" />
      </cc:Work>
    </rdf:RDF>
  </metadata>
  <defs
     id="defs8" />
  <sodipodi:namedview
     inkscape:current-layer="svg4"
     inkscape:window-maximized="0"
     inkscape:window-y="0"
     inkscape:window-x="0"
     inkscape:cy="24"
     inkscape:cx="24"
     inkscape:zoom="17.708333"
     showgrid="false"
     id="namedview6"
     inkscape:window-height="480"
     inkscape:window-width="705"
     inkscape:pageshadow="2"
     inkscape:pageopacity="0"
     guidetolerance="10"
     gridtolerance="10"
     objecttolerance="10"
     borderopacity="1"
     bordercolor="#666666"
     pagecolor="#ffffff" />
  <path
     style="fill:#ffffff"
     id="path2"
     d="M480 984q-88 0-150.5-20.5T264 941q-11-5-17.5-15t-6.5-22v-50h-50q-13 0-21.5-8.5T160 824v-60q0-13 8.5-21.5T190 734h50V634h-50q-13 0-21.5-8.5T160 604v-60q0-13 8.5-21.5T190 514h50V414h-50q-13 0-21.5-8.5T160 384v-60q0-13 8.5-21.5T190 294h50v-70q0-22 18-33t38-3q1 0 55 18t129 18q75 0 129-18t55-18q20-8 38 3t18 33v70h50q13 0 21.5 8.5T800 324v60q0 13-8.5 21.5T770 414h-50v100h50q13 0 21.5 8.5T800 544v60q0 13-8.5 21.5T770 634h-50v100h50q13 0 21.5 8.5T800 764v60q0 13-8.5 21.5T770 854h-50v50q0 12-6.5 22T696 941q-3 2-65.5 22.5T480 984Zm0-527q56 0 103.5-9.5T660 428V253q-38 11-86 21t-94 10q-46 0-94-10t-86-21v175q29 10 77 19.5t103 9.5Zm0 234q56 0 103.5-10t76.5-20V491q-35 9-80.5 17.5T480 517q-54 0-99.5-8T300 491v170q29 10 76.5 20T480 691Zm0 233q54 0 102.5-11.5T660 891V725q-35 10-81 18t-99 8q-53 0-99-8t-81-18v166q29 10 78 21.5T480 924Z" />
</svg>
