<?xml version="1.0" encoding="UTF-8" standalone="no"?>
<svg
   xmlns:dc="http://purl.org/dc/elements/1.1/"
   xmlns:cc="http://creativecommons.org/ns#"
   xmlns:rdf="http://www.w3.org/1999/02/22-rdf-syntax-ns#"
   xmlns:svg="http://www.w3.org/2000/svg"
   xmlns="http://www.w3.org/2000/svg"
   xmlns:sodipodi="http://sodipodi.sourceforge.net/DTD/sodipodi-0.dtd"
   xmlns:inkscape="http://www.inkscape.org/namespaces/inkscape"
   inkscape:version="1.0 (4035a4fb49, 2020-05-01)"
   sodipodi:docname="payments_FILL1_wght400_GRAD0_opsz48_w.svg"
   id="svg4"
   version="1.1"
   width="48"
   viewBox="0 -960 960 960"
   height="48">
  <metadata
     id="metadata10">
    <rdf:RDF>
      <cc:Work
         rdf:about="">
        <dc:format>image/svg+xml</dc:format>
        <dc:type
           rdf:resource="http://purl.org/dc/dcmitype/StillImage" />
        <dc:title></dc:title>
      </cc:Work>
    </rdf:RDF>
  </metadata>
  <defs
     id="defs8" />
  <sodipodi:namedview
     inkscape:current-layer="svg4"
     inkscape:window-maximized="0"
     inkscape:window-y="0"
     inkscape:window-x="0"
     inkscape:cy="24"
     inkscape:cx="24"
     inkscape:zoom="17.708333"
     showgrid="false"
     id="namedview6"
     inkscape:window-height="480"
     inkscape:window-width="729"
     inkscape:pageshadow="2"
     inkscape:pageopacity="0"
     guidetolerance="10"
     gridtolerance="10"
     objecttolerance="10"
     borderopacity="1"
     bordercolor="#666666"
     pagecolor="#ffffff" />
  <path
     style="fill:#ffffff;stroke-width:1"
     id="path2"
     d="M 100,-160 Q 75.25,-160 57.625,-177.625 40,-195.25 40,-220 v -460 h 60 v 460 h 699.99999 v 60 z m 120,-120 q -24.75,0 -42.375,-17.625 Q 160,-315.25 160,-340 v -400 q 0,-24.75 17.625,-42.375 Q 195.25,-800 220,-800 h 640.00002 q 24.75,0 42.37499,17.625 Q 920,-764.75 920,-740 v 400 q 0,24.75 -17.62499,42.375 Q 884.75002,-280 860.00002,-280 Z m 100,-60 q 0,-42 -29,-71 -29,-29 -71,-29 v 100 z m 439.99998,0 h 100.00004 v -100 q -42.00003,0 -71.00003,29 -29.00001,29 -29.00001,71 z m -220,-80 Q 590,-420 625.00002,-455 660,-490 660,-540 660,-590 625.00002,-625 590,-660 539.99998,-660 490.00001,-660 455,-625 q -35,35 -35,85 0,50 35,85 35.00001,35 84.99998,35 z M 220,-640 q 42,0 71,-29 29,-29 29,-71 H 220 Z m 640.00002,0 V -740 H 759.99998 q 0,42 29.00001,71 29,29 71.00003,29 z" />
</svg>
