<?xml version="1.0" encoding="UTF-8" standalone="no"?>
<svg
   xmlns:dc="http://purl.org/dc/elements/1.1/"
   xmlns:cc="http://creativecommons.org/ns#"
   xmlns:rdf="http://www.w3.org/1999/02/22-rdf-syntax-ns#"
   xmlns:svg="http://www.w3.org/2000/svg"
   xmlns="http://www.w3.org/2000/svg"
   xmlns:sodipodi="http://sodipodi.sourceforge.net/DTD/sodipodi-0.dtd"
   xmlns:inkscape="http://www.inkscape.org/namespaces/inkscape"
   inkscape:version="1.0 (4035a4fb49, 2020-05-01)"
   sodipodi:docname="prescriptions_FILL1_wght400_GRAD0_opsz48_w.svg"
   id="svg4"
   version="1.1"
   width="48"
   viewBox="0 -960 960 960"
   height="48">
  <metadata
     id="metadata10">
    <rdf:RDF>
      <cc:Work
         rdf:about="">
        <dc:format>image/svg+xml</dc:format>
        <dc:type
           rdf:resource="http://purl.org/dc/dcmitype/StillImage" />
        <dc:title></dc:title>
      </cc:Work>
    </rdf:RDF>
  </metadata>
  <defs
     id="defs8" />
  <sodipodi:namedview
     inkscape:current-layer="svg4"
     inkscape:window-maximized="0"
     inkscape:window-y="0"
     inkscape:window-x="0"
     inkscape:cy="24"
     inkscape:cx="24"
     inkscape:zoom="17.708333"
     showgrid="false"
     id="namedview6"
     inkscape:window-height="480"
     inkscape:window-width="729"
     inkscape:pageshadow="2"
     inkscape:pageopacity="0"
     guidetolerance="10"
     gridtolerance="10"
     objecttolerance="10"
     borderopacity="1"
     bordercolor="#666666"
     pagecolor="#ffffff" />
  <path
     style="fill:#ffffff;stroke-width:0.999999"
     id="path2"
     d="m 736,-78 53.00001,-53 -178.00003,-178 -52.99996,53 q -37.00004,37 -37.00004,89 0,52 37.00004,89 36.99999,37 88.99999,37 52,0 88.99999,-37 z m 95,-95 53.00001,-53 Q 921,-263 921,-315 q 0,-52 -36.99999,-89 -36.99999,-37 -88.99999,-37 -52,0 -89.00003,37 l -52.99997,53 z M 280,-620 h 400.00001 v -60 H 280 Z m 200,-177 q 14,0 24.5,-10.5 Q 515,-818 515,-832 515,-846 504.5,-856.5 494,-867 480,-867 q -14,0 -24.5,10.5 -10.5,10.5 -10.5,24.5 0,14 10.5,24.5 10.5,10.5 24.5,10.5 z m -13,677 H 180 q -25,0 -42.5,-17.5 Q 120,-155 120,-180 v -600 q 0,-25 17.5,-42.5 Q 155,-840 180,-840 h 205 q 5,-35 32,-57.5 27,-22.5 63,-22.5 36,0 63.00001,22.5 Q 570,-875 575,-840 h 205.00001 q 24.99997,0 42.49998,17.5 Q 840,-805 840,-780 v 284 q -42,-11 -83.99999,-1 -42,10 -76,36 v -49 H 280 v 60 H 667.00002 L 557.00001,-340 H 280 v 60 h 219 q -26,34 -34.5,76 -8.5,42 2.5,84 z" />
</svg>
