<?xml version="1.0" encoding="UTF-8" standalone="no"?>
<svg
   xmlns:dc="http://purl.org/dc/elements/1.1/"
   xmlns:cc="http://creativecommons.org/ns#"
   xmlns:rdf="http://www.w3.org/1999/02/22-rdf-syntax-ns#"
   xmlns:svg="http://www.w3.org/2000/svg"
   xmlns="http://www.w3.org/2000/svg"
   xmlns:sodipodi="http://sodipodi.sourceforge.net/DTD/sodipodi-0.dtd"
   xmlns:inkscape="http://www.inkscape.org/namespaces/inkscape"
   inkscape:version="1.0 (4035a4fb49, 2020-05-01)"
   sodipodi:docname="psychology_FILL1_wght400_GRAD0_opsz48.svg"
   id="svg4"
   version="1.1"
   width="48"
   viewBox="0 96 960 960"
   height="48">
  <metadata
     id="metadata10">
    <rdf:RDF>
      <cc:Work
         rdf:about="">
        <dc:format>image/svg+xml</dc:format>
        <dc:type
           rdf:resource="http://purl.org/dc/dcmitype/StillImage" />
      </cc:Work>
    </rdf:RDF>
  </metadata>
  <defs
     id="defs8" />
  <sodipodi:namedview
     inkscape:current-layer="svg4"
     inkscape:window-maximized="0"
     inkscape:window-y="0"
     inkscape:window-x="0"
     inkscape:cy="24"
     inkscape:cx="24"
     inkscape:zoom="17.708333"
     showgrid="false"
     id="namedview6"
     inkscape:window-height="480"
     inkscape:window-width="756"
     inkscape:pageshadow="2"
     inkscape:pageopacity="0"
     guidetolerance="10"
     gridtolerance="10"
     objecttolerance="10"
     borderopacity="1"
     bordercolor="#666666"
     pagecolor="#ffffff" />
  <path
     style="stroke-width:1;fill:#ffffff"
     id="path2"
     d="m 449,682 h 59.99999 l 3.00003,-44 q 11.99997,-2 22.49997,-8.5 10.50003,-6.5 18.50003,-14.5 L 595,629 l 27.99999,-48 -30,-24 q 5,-14 5,-29 0,-15 -5,-29 l 30,-24 L 595,427 553.00002,441 q -8,-8 -19.00002,-14 -10.99999,-6 -21.99998,-9 l -3.00003,-44 H 449 l -3,44 q -11,3 -21.99999,9 Q 413,433 405,441 l -42,-14 -28,48 30,24 q -5,14 -5,29 0,15 5,29 l -30,24 28,48 42,-14 q 8,8 18.50001,14.5 Q 434,636 446,638 Z m 30,-84 Q 450,598 429.5,577.5 409,557 409,528 409,499 429.5,478.5 450,458 479,458 q 29.00001,0 49.5,20.5 Q 549,499 549,528 549,557 528.5,577.5 508.00001,598 479,598 Z M 240,976 V 804 Q 183,752 151.5,682.5 120,613 120,536 120,386 225,281 330,176 480,176 605,176 701.5,249.5 798,323 827.00002,441 l 54.99997,218 q 4.00002,14 -5,25.5 -8.99998,11.5 -23.99998,11.5 H 760 v 140 q 0,25 -17.50001,42.5 Q 725.00003,896 700.00002,896 H 600 v 80 z" />
</svg>
