<?xml version="1.0" encoding="UTF-8" standalone="no"?>
<svg
   xmlns:dc="http://purl.org/dc/elements/1.1/"
   xmlns:cc="http://creativecommons.org/ns#"
   xmlns:rdf="http://www.w3.org/1999/02/22-rdf-syntax-ns#"
   xmlns:svg="http://www.w3.org/2000/svg"
   xmlns="http://www.w3.org/2000/svg"
   xmlns:sodipodi="http://sodipodi.sourceforge.net/DTD/sodipodi-0.dtd"
   xmlns:inkscape="http://www.inkscape.org/namespaces/inkscape"
   inkscape:version="1.0 (4035a4fb49, 2020-05-01)"
   sodipodi:docname="spatial_audio_off_FILL0_wght400_GRAD0_opsz48_w.svg"
   id="svg4"
   version="1.1"
   width="48"
   viewBox="0 -960 960 960"
   height="48">
  <metadata
     id="metadata10">
    <rdf:RDF>
      <cc:Work
         rdf:about="">
        <dc:format>image/svg+xml</dc:format>
        <dc:type
           rdf:resource="http://purl.org/dc/dcmitype/StillImage" />
        <dc:title></dc:title>
      </cc:Work>
    </rdf:RDF>
  </metadata>
  <defs
     id="defs8" />
  <sodipodi:namedview
     inkscape:current-layer="svg4"
     inkscape:window-maximized="0"
     inkscape:window-y="0"
     inkscape:window-x="0"
     inkscape:cy="24"
     inkscape:cx="24"
     inkscape:zoom="17.708333"
     showgrid="false"
     id="namedview6"
     inkscape:window-height="480"
     inkscape:window-width="786"
     inkscape:pageshadow="2"
     inkscape:pageopacity="0"
     guidetolerance="10"
     gridtolerance="10"
     objecttolerance="10"
     borderopacity="1"
     bordercolor="#666666"
     pagecolor="#ffffff" />
  <path
     style="stroke-width:1;fill:#ffffff"
     id="path2"
     d="M 764.00001,-389 807,-432 Q 762.00002,-481 735.99999,-542 710,-603 710,-669 710,-735 736.49999,-795.5 763.00001,-856 808,-905 l -42.99999,-43 Q 711,-891 680.49998,-819 650,-747 650,-669 q 0,78 29.99998,150.5 Q 710,-446 764.00001,-389 Z m 141,-142 L 947,-573 q -17.00001,-20 -26.99998,-44.5 -10.00003,-24.5 -10.00003,-50.5 0,-26 9.50003,-51 Q 929,-744 947,-764 l -41.99999,-43 q -27.00003,28 -41,64 Q 850,-707 850,-669 q 0,38 14.50001,73.5 14.50001,35.5 40.5,64.5 z M 400,-441 q -66,0 -108,-42 -42,-42 -42,-108 0,-66 42,-108 42,-42 108,-42 66,0 108,42 42.00001,42 42.00001,108 0,66 -42.00001,108 -42,42 -108,42 z M 80,-120 v -94 q 0,-38 19,-64.5 19,-26.5 49,-41.5 51,-26 120.5,-43 69.5,-17 131.5,-17 62,0 131,17 68.99998,17 120,43 30.00002,15 49.49998,41.5 19.5,26.5 19.5,64.5 v 94 z m 60,-60 h 519.99998 v -34 q 0,-16 -8.49998,-29.5 Q 643.00002,-257 627.00001,-266 578.99999,-293 517.99999,-306.5 457,-320 400,-320 343,-320 281.5,-305.5 220,-291 172,-266 q -14,7 -23,21.5 -9,14.5 -9,30.5 z m 260,-321 q 39,0 64.5,-25.5 Q 490,-552 490,-591 490,-630 464.5,-655.5 439,-681 400,-681 q -39,0 -64.5,25.5 -25.5,25.5 -25.5,64.5 0,39 25.5,64.5 25.5,25.5 64.5,25.5 z m 0,-90 z m 0,411 z" />
</svg>
