<?xml version="1.0" encoding="UTF-8" standalone="no"?>
<svg
   xmlns:dc="http://purl.org/dc/elements/1.1/"
   xmlns:cc="http://creativecommons.org/ns#"
   xmlns:rdf="http://www.w3.org/1999/02/22-rdf-syntax-ns#"
   xmlns:svg="http://www.w3.org/2000/svg"
   xmlns="http://www.w3.org/2000/svg"
   xmlns:sodipodi="http://sodipodi.sourceforge.net/DTD/sodipodi-0.dtd"
   xmlns:inkscape="http://www.inkscape.org/namespaces/inkscape"
   inkscape:version="1.0 (4035a4fb49, 2020-05-01)"
   sodipodi:docname="syringe_FILL1_wght400_GRAD0_opsz48_w.svg"
   id="svg4"
   version="1.1"
   width="48"
   viewBox="0 -960 960 960"
   height="48">
  <metadata
     id="metadata10">
    <rdf:RDF>
      <cc:Work
         rdf:about="">
        <dc:format>image/svg+xml</dc:format>
        <dc:type
           rdf:resource="http://purl.org/dc/dcmitype/StillImage" />
        <dc:title></dc:title>
      </cc:Work>
    </rdf:RDF>
  </metadata>
  <defs
     id="defs8" />
  <sodipodi:namedview
     inkscape:current-layer="svg4"
     inkscape:window-maximized="0"
     inkscape:window-y="0"
     inkscape:window-x="0"
     inkscape:cy="24"
     inkscape:cx="24"
     inkscape:zoom="17.708333"
     showgrid="false"
     id="namedview6"
     inkscape:window-height="480"
     inkscape:window-width="786"
     inkscape:pageshadow="2"
     inkscape:pageopacity="0"
     guidetolerance="10"
     gridtolerance="10"
     objecttolerance="10"
     borderopacity="1"
     bordercolor="#666666"
     pagecolor="#ffffff" />
  <path
     style="stroke-width:1;fill:#ffffff"
     id="path2"
     d="m 149,-520 q -8,-9 -8,-21.5 0,-12.5 8,-21.5 l 126,-125 -57,-58 -26,26 q -9,9 -21.5,9 -12.5,0 -21.5,-9 -8,-8 -8,-20.5 0,-12.5 8,-21.5 l 94,-94 q 9,-9 21.5,-9 12.5,0 21.5,9 8,9 8,21.5 0,12.5 -8,20.5 l -26,27 57,57 126,-127 q 9,-8 21.5,-8 12.5,0 21.5,8 8,9 8,21.5 0,12.5 -8,21.5 l -34,34 86,85 -114,112 q -8,9 -8,21.5 0,12.5 8,20.5 9,9 21.5,9 12.5,0 21.5,-9 l 111.99999,-112 86.00003,85 -113.00004,112 q -8.99997,9 -8.99997,21.5 0,12.5 8.99997,21.5 8.00001,8 20.5,8 12.50003,0 20.50004,-9 l 112.99999,-113 84.99998,85 q 17.99999,17 17.50001,42.5 -0.49999,25.5 -17.50001,42.5 L 740.99998,-307 913,-135 h -84.00001 l -129.99997,-130 -50.00001,50 q -17.00002,17 -42,17 -25.00003,0 -43.00002,-17 L 226,-554 l -34,34 q -9,9 -21.5,9 -12.5,0 -21.5,-9 z" />
</svg>
