<?xml version="1.0" encoding="UTF-8" standalone="no"?>
<svg
   xmlns:dc="http://purl.org/dc/elements/1.1/"
   xmlns:cc="http://creativecommons.org/ns#"
   xmlns:rdf="http://www.w3.org/1999/02/22-rdf-syntax-ns#"
   xmlns:svg="http://www.w3.org/2000/svg"
   xmlns="http://www.w3.org/2000/svg"
   xmlns:sodipodi="http://sodipodi.sourceforge.net/DTD/sodipodi-0.dtd"
   xmlns:inkscape="http://www.inkscape.org/namespaces/inkscape"
   inkscape:version="1.0 (4035a4fb49, 2020-05-01)"
   sodipodi:docname="tv_signin_FILL0_wght400_GRAD0_opsz48_w.svg"
   id="svg4"
   version="1.1"
   width="48"
   viewBox="0 -960 960 960"
   height="48">
  <metadata
     id="metadata10">
    <rdf:RDF>
      <cc:Work
         rdf:about="">
        <dc:format>image/svg+xml</dc:format>
        <dc:type
           rdf:resource="http://purl.org/dc/dcmitype/StillImage" />
        <dc:title></dc:title>
      </cc:Work>
    </rdf:RDF>
  </metadata>
  <defs
     id="defs8" />
  <sodipodi:namedview
     inkscape:current-layer="svg4"
     inkscape:window-maximized="0"
     inkscape:window-y="0"
     inkscape:window-x="0"
     inkscape:cy="24"
     inkscape:cx="24"
     inkscape:zoom="17.708333"
     showgrid="false"
     id="namedview6"
     inkscape:window-height="480"
     inkscape:window-width="729"
     inkscape:pageshadow="2"
     inkscape:pageopacity="0"
     guidetolerance="10"
     gridtolerance="10"
     objecttolerance="10"
     borderopacity="1"
     bordercolor="#666666"
     pagecolor="#ffffff" />
  <path
     style="fill:#ffffff;stroke-width:1"
     id="path2"
     d="m 320,-360 h 320 v -18.716 Q 640,-417 594.5,-442 549,-467 480,-467 q -69,0 -114.5,25 -45.5,25 -45.5,63.284 z m 159.92,-174 q 30.08,0 51.58,-21.42 21.5,-21.421 21.5,-51.5 0,-30.08 -21.42,-51.58 -21.421,-21.5 -51.5,-21.5 -30.08,0 -51.58,21.42 -21.5,21.421 -21.5,51.5 0,30.08 21.42,51.58 21.421,21.5 51.5,21.5 z M 330,-120 v -80 H 140 q -24,0 -42,-18 -18,-18 -18,-42 v -520 q 0,-24 18,-42 18,-18 42,-18 h 680 q 24,0 42,18 18,18 18,42 v 520 q 0,24 -18,42 -18,18 -42,18 H 630 v 80 z M 140,-260 H 820 V -780 H 140 Z m 0,0 v -520 z" />
</svg>
