<?xml version="1.0" encoding="UTF-8" standalone="no"?>
<svg
   xmlns:dc="http://purl.org/dc/elements/1.1/"
   xmlns:cc="http://creativecommons.org/ns#"
   xmlns:rdf="http://www.w3.org/1999/02/22-rdf-syntax-ns#"
   xmlns:svg="http://www.w3.org/2000/svg"
   xmlns="http://www.w3.org/2000/svg"
   xmlns:sodipodi="http://sodipodi.sourceforge.net/DTD/sodipodi-0.dtd"
   xmlns:inkscape="http://www.inkscape.org/namespaces/inkscape"
   inkscape:version="1.0 (4035a4fb49, 2020-05-01)"
   sodipodi:docname="vaccines_FILL1_wght400_GRAD0_opsz48.svg"
   id="svg4"
   version="1.1"
   width="48"
   viewBox="0 96 960 960"
   height="48">
  <metadata
     id="metadata10">
    <rdf:RDF>
      <cc:Work
         rdf:about="">
        <dc:format>image/svg+xml</dc:format>
        <dc:type
           rdf:resource="http://purl.org/dc/dcmitype/StillImage" />
      </cc:Work>
    </rdf:RDF>
  </metadata>
  <defs
     id="defs8" />
  <sodipodi:namedview
     inkscape:current-layer="svg4"
     inkscape:window-maximized="0"
     inkscape:window-y="0"
     inkscape:window-x="0"
     inkscape:cy="24"
     inkscape:cx="24"
     inkscape:zoom="17.708333"
     showgrid="false"
     id="namedview6"
     inkscape:window-height="837"
     inkscape:window-width="1600"
     inkscape:pageshadow="2"
     inkscape:pageopacity="0"
     guidetolerance="10"
     gridtolerance="10"
     objecttolerance="10"
     borderopacity="1"
     bordercolor="#666666"
     pagecolor="#ffffff" />
  <path
     style="fill:#ffffff;fill-opacity:1"
     id="path2"
     d="m310 996-60-45V766h-60q-24 0-42-18t-18-42V386h-10q-13 0-21.5-8.5T90 356q0-13 8.5-21.5T120 326h130v-90h-30q-13 0-21.5-8.5T190 206q0-13 8.5-21.5T220 176h120q13 0 21.5 8.5T370 206q0 13-8.5 21.5T340 236h-30v90h130q13 0 21.5 8.5T470 356q0 13-8.5 21.5T440 386h-10v320q0 24-18 42t-42 18h-60v230ZM190 706h180v-80h-80q-8 0-14-6t-6-14q0-8 6-14t14-6h80v-80h-80q-8 0-14-6t-6-14q0-8 6-14t14-6h80v-80H190v320Zm410 270q-24 0-42-18t-18-42V650q0-32 8-48.5t21-30.5q19-20 25-31t6-24v-30h-10q-13 0-21.5-8.5T560 456q0-13 9-21.5t21-8.5h200q13 0 21.5 8.5T820 456q0 13-8.5 21.5T790 486h-10v30q0 12 7.5 25t26.5 33q13 14 19.5 29t6.5 47v266q0 24-18 42t-42 18H600Zm0-300h180v-26q0-18-10-32t-22-29q-15-19-21.5-35t-6.5-38v-30h-60v30q0 21-6 37t-21 35q-12 15-22.5 29.5T600 650v26Zm0 240h180v-80H600v80Z" />
</svg>
